<svg version="1.1" viewBox="0.0 0.0 674.7217847769028 153.7217847769029" fill="none" stroke="none" stroke-linecap="square" stroke-miterlimit="10" xmlns:xlink="http://www.w3.org/1999/xlink" xmlns="http://www.w3.org/2000/svg"><clipPath id="p.0"><path d="m0 0l674.7218 0l0 153.72179l-674.7218 0l0 -153.72179z" clip-rule="nonzero"/></clipPath><g clip-path="url(#p.0)"><path fill="#000000" fill-opacity="0.0" d="m0 0l674.7218 0l0 153.72179l-674.7218 0z" fill-rule="evenodd"/><path fill="#cfe2f3" d="m49.59055 58.37437l107.43616 0l0 47.75555c-53.715187 0 -53.715187 18.373924 -107.43616 9.186958zm8.851421 0l0 -6.1912117l106.70239 0l0 48.055122c-4.0559387 0 -8.1176605 0.33286285 -8.1176605 0.33286285l0 -42.196774zm8.319878 -6.1912117l0 -6.0414276l107.62681 0l0 47.905342c-4.6221466 0 -9.244293 0.24964142 -9.244293 0.24964142l0 -42.113556z" fill-rule="evenodd"/><path fill="#000000" fill-opacity="0.0" d="m49.59055 58.37437l107.43616 0l0 47.75555c-53.715187 0 -53.715187 18.373924 -107.43616 9.186958zm8.851421 0l0 -6.1912117l106.70239 0l0 48.055122c-4.0559387 0 -8.1176605 0.33286285 -8.1176605 0.33286285m-90.264854 -48.387985l0 -6.0414276l107.62681 0l0 47.905342c-4.6221466 0 -9.244293 0.24964142 -9.244293 0.24964142" fill-rule="evenodd"/><path fill="#000000" fill-opacity="0.0" d="m49.59055 115.31688c53.720966 9.186966 53.720966 -9.186958 107.43616 -9.186958l0 -5.558777c0 0 4.061722 -0.33286285 8.1176605 -0.33286285l0 -5.9415665c0 0 4.6221466 -0.24964142 9.244293 -0.24964142l0 -47.905342l-107.62681 0l0 6.0414276l-8.319878 0l0 6.1912117l-8.851421 0z" fill-rule="evenodd"/><path stroke="#000000" stroke-width="1.0" stroke-linejoin="round" stroke-linecap="butt" d="m49.59055 58.37437l107.43616 0l0 47.75555c-53.715187 0 -53.715187 18.373924 -107.43616 9.186958zm8.851421 0l0 -6.1912117l106.70239 0l0 48.055122c-4.0559387 0 -8.1176605 0.33286285 -8.1176605 0.33286285m-90.264854 -48.387985l0 -6.0414276l107.62681 0l0 47.905342c-4.6221466 0 -9.244293 0.24964142 -9.244293 0.24964142" fill-rule="evenodd"/><path fill="#000000" d="m60.0593 93.765625l0 -13.359375l9.656254 0l0 1.578125l-7.875004 0l0 4.09375l7.375004 0l0 1.5625l-7.375004 0l0 4.546875l8.187504 0l0 1.578125l-9.968754 0zm11.115452 0l3.53125 -5.03125l-3.265625 -4.640625l2.046875 0l1.484375 2.265625q0.421875 0.640625 0.671875 1.078125q0.40625 -0.59375 0.734375 -1.0625l1.640625 -2.28125l1.953125 0l-3.34375 4.546875l3.59375 5.125l-2.015625 0l-1.984375 -3.0l-0.515625 -0.8125l-2.546875 3.8125l-1.984375 0zm16.734375 -1.1875q-0.921875 0.765625 -1.765625 1.09375q-0.828125 0.3125 -1.796875 0.3125q-1.59375 0 -2.453125 -0.78125q-0.859375 -0.78125 -0.859375 -1.984375q0 -0.71875 0.328125 -1.296875q0.328125 -0.59375 0.84375 -0.9375q0.53125 -0.359375 1.1875 -0.546875q0.46875 -0.125 1.453125 -0.25q1.984375 -0.234375 2.921875 -0.5625q0.015625 -0.34375 0.015625 -0.421875q0 -1.0 -0.46875 -1.421875q-0.625 -0.546875 -1.875 -0.546875q-1.15625 0 -1.703125 0.40625q-0.546875 0.40625 -0.8125 1.421875l-1.609375 -0.21875q0.21875 -1.015625 0.71875 -1.640625q0.5 -0.640625 1.453125 -0.984375q0.953125 -0.34375 2.1875 -0.34375q1.25 0 2.015625 0.296875q0.78125 0.28125 1.140625 0.734375q0.375 0.4375 0.515625 1.109375q0.078125 0.421875 0.078125 1.515625l0 2.1875q0 2.28125 0.109375 2.890625q0.109375 0.59375 0.40625 1.15625l-1.703125 0q-0.265625 -0.515625 -0.328125 -1.1875zm-0.140625 -3.671875q-0.890625 0.375 -2.671875 0.625q-1.015625 0.140625 -1.4375 0.328125q-0.421875 0.1875 -0.65625 0.53125q-0.21875 0.34375 -0.21875 0.78125q0 0.65625 0.5 1.09375q0.5 0.4375 1.453125 0.4375q0.9375 0 1.671875 -0.40625q0.75 -0.421875 1.09375 -1.140625q0.265625 -0.5625 0.265625 -1.640625l0 -0.609375zm4.203842 4.859375l0 -9.671875l1.46875 0l0 1.359375q0.453125 -0.71875 1.203125 -1.140625q0.765625 -0.4375 1.71875 -0.4375q1.078125 0 1.765625 0.453125q0.6875 0.4375 0.96875 1.234375q1.15625 -1.6875 2.984375 -1.6875q1.453125 0 2.21875 0.796875q0.78125 0.796875 0.78125 2.453125l0 6.640625l-1.640625 0l0 -6.09375q0 -0.984375 -0.15625 -1.40625q-0.15625 -0.4375 -0.578125 -0.703125q-0.421875 -0.265625 -0.984375 -0.265625q-1.015625 0 -1.6875 0.6875q-0.671875 0.671875 -0.671875 2.15625l0 5.625l-1.640625 0l0 -6.28125q0 -1.09375 -0.40625 -1.640625q-0.40625 -0.546875 -1.3125 -0.546875q-0.6875 0 -1.28125 0.359375q-0.59375 0.359375 -0.859375 1.0625q-0.25 0.703125 -0.25 2.03125l0 5.015625l-1.640625 0zm15.540802 3.703125l0 -13.375l1.484375 0l0 1.25q0.53125 -0.734375 1.1875 -1.09375q0.671875 -0.375 1.625 -0.375q1.234375 0 2.171875 0.640625q0.953125 0.625 1.4375 1.796875q0.484375 1.15625 0.484375 2.546875q0 1.484375 -0.53125 2.671875q-0.53125 1.1875 -1.546875 1.828125q-1.015625 0.625 -2.140625 0.625q-0.8125 0 -1.46875 -0.34375q-0.65625 -0.34375 -1.0625 -0.875l0 4.703125l-1.640625 0zm1.484375 -8.484375q0 1.859375 0.75 2.765625q0.765625 0.890625 1.828125 0.890625q1.09375 0 1.875 -0.921875q0.78125 -0.9375 0.78125 -2.875q0 -1.84375 -0.765625 -2.765625q-0.75 -0.921875 -1.8125 -0.921875q-1.046875 0 -1.859375 0.984375q-0.796875 0.96875 -0.796875 2.84375zm8.844467 4.78125l0 -13.359375l1.640625 0l0 13.359375l-1.640625 0zm10.816689 -3.109375l1.6875 0.203125q-0.40625 1.484375 -1.484375 2.3125q-1.0781174 0.8125 -2.7656174 0.8125q-2.125 0 -3.375 -1.296875q-1.234375 -1.3125 -1.234375 -3.671875q0 -2.453125 1.25 -3.796875q1.265625 -1.34375 3.265625 -1.34375q1.9375 0 3.1562424 1.328125q1.234375 1.3125 1.234375 3.703125q0 0.15625 0 0.4375l-7.2187424 0q0.09375 1.59375 0.90625 2.453125q0.8125 0.84375 2.015625 0.84375q0.90625 0 1.546875 -0.46875q0.6406174 -0.484375 1.0156174 -1.515625zm-5.3906174 -2.65625l5.4062424 0q-0.109375 -1.21875 -0.625 -1.828125q-0.7812424 -0.953125 -2.0312424 -0.953125q-1.125 0 -1.90625 0.765625q-0.765625 0.75 -0.84375 2.015625zm8.485085 2.875l1.625 -0.25q0.125 0.96875 0.75 1.5q0.625 0.515625 1.75 0.515625q1.125 0 1.671875 -0.453125q0.546875 -0.46875 0.546875 -1.09375q0 -0.546875 -0.484375 -0.875q-0.328125 -0.21875 -1.671875 -0.546875q-1.8125 -0.46875 -2.515625 -0.796875q-0.6875 -0.328125 -1.046875 -0.90625q-0.359375 -0.59375 -0.359375 -1.3125q0 -0.640625 0.296875 -1.1875q0.296875 -0.5625 0.8125 -0.921875q0.375 -0.28125 1.03125 -0.46875q0.671875 -0.203125 1.421875 -0.203125q1.140625 0 2.0 0.328125q0.859375 0.328125 1.265625 0.890625q0.421875 0.5625 0.578125 1.5l-1.609375 0.21875q-0.109375 -0.75 -0.640625 -1.171875q-0.515625 -0.421875 -1.46875 -0.421875q-1.140625 0 -1.625 0.375q-0.46875 0.375 -0.46875 0.875q0 0.3125 0.1875 0.578125q0.203125 0.265625 0.640625 0.4375q0.234375 0.09375 1.4375 0.421875q1.75 0.453125 2.4375 0.75q0.6875 0.296875 1.078125 0.859375q0.390625 0.5625 0.390625 1.40625q0 0.828125 -0.484375 1.546875q-0.46875 0.71875 -1.375 1.125q-0.90625 0.390625 -2.046875 0.390625q-1.875 0 -2.875 -0.78125q-0.984375 -0.78125 -1.25 -2.328125z" fill-rule="nonzero"/><path fill="#ed1c24" d="m512.50665 99.55355l1.1132202 3.3392258l1.0546875 -3.3392258z" fill-rule="evenodd"/><path fill="#ed1c24" d="m549.1265 99.55355l1.0541382 3.3392258l1.1132812 -3.3392258z" fill-rule="evenodd"/><path fill="#39b54a" d="m530.7873 99.55355l1.1132812 3.3392258l1.1126709 -3.3392258z" fill-rule="evenodd"/><path fill="#000000" fill-opacity="0.0" d="m458.66147 97.912926l146.397 0" fill-rule="evenodd"/><path stroke="#000000" stroke-width="2.5511811023622046" stroke-linejoin="round" stroke-linecap="round" d="m458.66147 97.912926l146.397 0" fill-rule="evenodd"/><path fill="#000000" fill-opacity="0.0" d="m513.62006 63.16747l0 37.023693" fill-rule="evenodd"/><path stroke="#ed1c24" stroke-width="2.5511811023622046" stroke-miterlimit="108.034" stroke-linecap="round" d="m513.62006 63.16747l0 37.023693" fill-rule="evenodd"/><path fill="#000000" fill-opacity="0.0" d="m550.18085 63.108894l0 37.08226" fill-rule="evenodd"/><path stroke="#ed1c24" stroke-width="2.5511811023622046" stroke-linejoin="round" stroke-linecap="round" d="m550.18085 63.108894l0 37.08226" fill-rule="evenodd"/><path fill="#000000" fill-opacity="0.0" d="m531.90076 40.550705l0 59.636368" fill-rule="evenodd"/><path stroke="#39b54a" stroke-width="2.5511811023622046" stroke-linejoin="round" stroke-linecap="round" d="m531.90076 40.550705l0 59.636368" fill-rule="evenodd"/><path fill="#000000" fill-opacity="0.0" d="m458.66147 97.90252c3.3392334 -0.058563232 6.619873 -0.058563232 9.959106 -0.117126465c3.1635132 -0.117126465 6.327057 -0.23426056 9.4314575 -0.6447449c3.3392334 -0.40995026 6.6199036 -1.112709 9.7248535 -2.401657c3.1049805 -1.2303848 5.8580017 -3.1635284 8.435883 -5.389496c2.4602356 -2.1674042 4.628174 -4.862419 6.502777 -7.5568924c1.9916992 -2.812149 3.8077087 -5.6828613 5.4480286 -8.670151c1.7574768 -3.1049652 3.3977966 -6.2099304 5.0966797 -9.314899c1.5817871 -3.1049652 3.222107 -6.1508217 4.9210205 -9.197224c1.6403198 -2.9292717 3.397766 -5.858547 5.448059 -8.494457c1.1132202 -1.4060745 2.2844849 -2.6364555 3.632019 -3.7491684c1.2889404 -1.0546913 2.8121338 -1.6403275 4.4524536 -1.7574539c1.6989136 -0.17569351 3.2215576 0.7027626 4.569092 1.5817642c1.4060669 0.93701935 2.519287 2.2845268 3.5734863 3.573475c2.1679077 2.63591 3.925354 5.682312 5.6242676 8.670151c1.6989136 2.8701668 3.2215576 5.8580017 4.744751 8.787277c1.6403198 3.1635284 3.2806396 6.267952 5.038086 9.314354c1.6989136 2.9878387 3.4563599 5.9171066 5.3895264 8.670151c1.9922485 2.8707047 4.159668 5.5651855 6.678406 7.908821c2.5193481 2.3430939 5.3309326 4.159111 8.37738 5.5066223c2.9292603 1.3475037 6.2099 2.05027 9.373413 2.4602203c3.2215576 0.4104843 6.5021973 0.58618164 9.782898 0.6447449c3.222046 0.117126465 6.5027466 0.117126465 9.7248535 0.1756897c0.17565918 0 0.3513794 0 0.46850586 0" fill-rule="evenodd"/><path stroke="#0071bc" stroke-width="2.5511811023622046" stroke-linejoin="round" stroke-linecap="round" d="m458.66147 97.90252c3.3392334 -0.058563232 6.619873 -0.058563232 9.959106 -0.117126465c3.1635132 -0.117126465 6.327057 -0.23426056 9.4314575 -0.6447449c3.3392334 -0.40995026 6.6199036 -1.112709 9.7248535 -2.401657c3.1049805 -1.2303848 5.8580017 -3.1635284 8.435883 -5.389496c2.4602356 -2.1674042 4.628174 -4.862419 6.502777 -7.5568924c1.9916992 -2.812149 3.8077087 -5.6828613 5.4480286 -8.670151c1.7574768 -3.1049652 3.3977966 -6.2099304 5.0966797 -9.314899c1.5817871 -3.1049652 3.222107 -6.1508217 4.9210205 -9.197224c1.6403198 -2.9292717 3.397766 -5.858547 5.448059 -8.494457c1.1132202 -1.4060745 2.2844849 -2.6364555 3.632019 -3.7491684c1.2889404 -1.0546913 2.8121338 -1.6403275 4.4524536 -1.7574539c1.6989136 -0.17569351 3.2215576 0.7027626 4.569092 1.5817642c1.4060669 0.93701935 2.519287 2.2845268 3.5734863 3.573475c2.1679077 2.63591 3.925354 5.682312 5.6242676 8.670151c1.6989136 2.8701668 3.2215576 5.8580017 4.744751 8.787277c1.6403198 3.1635284 3.2806396 6.267952 5.038086 9.314354c1.6989136 2.9878387 3.4563599 5.9171066 5.3895264 8.670151c1.9922485 2.8707047 4.159668 5.5651855 6.678406 7.908821c2.5193481 2.3430939 5.3309326 4.159111 8.37738 5.5066223c2.9292603 1.3475037 6.2099 2.05027 9.373413 2.4602203c3.2215576 0.4104843 6.5021973 0.58618164 9.782898 0.6447449c3.222046 0.117126465 6.5027466 0.117126465 9.7248535 0.1756897c0.17565918 0 0.3513794 0 0.46850586 0" fill-rule="evenodd"/><path fill="#39b54a" d="m530.7873 104.299164l0 2.4021988c0 0.40995026 0.05859375 0.7027664 0.117126465 0.8784561l0.3513794 0c-0.058532715 -0.23425293 -0.058532715 -0.6442032 -0.058532715 -0.8784561l0 -0.29281616c0.117126465 0.1756897 0.29278564 0.23425293 0.5275879 0.23425293c0.3513794 0 0.5856323 -0.1756897 0.6442261 -0.40994263c0.058532715 0.3513794 0.23425293 0.40994263 0.4099121 0.40994263l0.17572021 0l0.058532715 -0.29281616c-0.17565918 0 -0.23425293 -0.117126465 -0.23425293 -0.3519287l0 -1.6988907l-0.4099121 0l0 1.4060745c0 0.117126465 -0.05859375 0.1756897 -0.05859375 0.23425293c-0.058532715 0.17623138 -0.29278564 0.41049194 -0.5270386 0.41049194c-0.41052246 0 -0.5276489 -0.29336548 -0.5276489 -0.7033081l0 -1.3475113z" fill-rule="evenodd"/><path fill="#ed1c24" d="m546.31396 104.416855l0 2.401657c0 0.35138702 0.05859375 0.7027664 0.117126465 0.8784561l0.3513794 0c-0.058532715 -0.23425293 -0.058532715 -0.6442032 -0.058532715 -0.8784561l0 -0.29281616c0.117126465 0.1756897 0.29278564 0.23425293 0.5275879 0.23425293c0.3513794 0 0.5270996 -0.1756897 0.6442261 -0.40994263c0.058532715 0.29281616 0.23425293 0.40994263 0.4099121 0.40994263l0.17572021 0l0 -0.29281616c-0.17572021 0 -0.17572021 -0.117126465 -0.17572021 -0.35138702l0 -1.6988907l-0.4099121 0l0 1.4055328c0 0.117126465 -0.05859375 0.1756897 -0.05859375 0.23425293c-0.058532715 0.17623138 -0.29278564 0.41049194 -0.5856323 0.41049194c-0.3519287 0 -0.46905518 -0.35138702 -0.46905518 -0.7033081l0 -1.3469696z" fill-rule="evenodd"/><path fill="#ed1c24" d="m549.8878 104.182014l0 1.1132584l-1.0541382 0l0 0.29281616l1.0541382 0l0 1.171814l0.29284668 0l0 -1.171814l1.1132202 0l0 -0.29281616l-1.1132202 0l0 -1.1132584z" fill-rule="evenodd"/><path fill="#ed1c24" d="m552.759 104.70966c0.5270386 0 0.7027588 0.4685135 0.7027588 0.8784561c0 0.5276184 -0.29284668 0.8789978 -0.7027588 0.8789978c-0.3513794 0 -0.6447754 -0.3513794 -0.6447754 -0.8789978c0 -0.40994263 0.17626953 -0.8784561 0.6447754 -0.8784561zm0.117126465 -0.35192108c-0.7033081 0 -1.2304077 0.46904755 -1.2304077 1.2303772c0 0.76187134 0.5270996 1.1718216 1.1132812 1.1718216c0.5270386 0 1.1127319 -0.35138702 1.1127319 -1.1718216c0 -0.3513794 -0.17572021 -0.7027664 -0.40997314 -0.8784561l0 -0.058563232c0.29284668 0.058563232 0.46850586 0.058563232 0.58618164 0.058563232l0 -0.35192108z" fill-rule="evenodd"/><path fill="#ed1c24" d="m509.75317 104.35774l0 2.4021988c0 0.3513794 0 0.7027588 0.058563232 0.8198929l0.3513794 0c0 -0.17569733 -0.058563232 -0.58563995 -0.058563232 -0.8784561l0 -0.2928238c0.117126465 0.1756897 0.29281616 0.2928238 0.5270691 0.2928238c0.3519287 0 0.58618164 -0.23426056 0.6447449 -0.40995026l0.058563232 0c0 0.29281616 0.1756897 0.40995026 0.40997314 0.40995026l0.117126465 0l0.058563232 -0.35138702c-0.1756897 0 -0.23425293 -0.058563232 -0.23425293 -0.35192108l0 -1.6403275l-0.40997314 0l0 1.4060669c0 0.058563232 -0.058563232 0.117126465 -0.058563232 0.17569733c-0.058563232 0.23479462 -0.29333496 0.4104843 -0.5276184 0.4104843c-0.40994263 0 -0.5270691 -0.29335785 -0.5270691 -0.6447449l0 -1.3475037z" fill-rule="evenodd"/><path fill="#ed1c24" d="m512.2138 105.2369l0 0.29281616l2.4607544 0l0 -0.29281616z" fill-rule="evenodd"/><path fill="#ed1c24" d="m516.1982 104.59252c0.46850586 0 0.6442261 0.5270767 0.6442261 0.87846375c0 0.5270691 -0.29284668 0.93756104 -0.6442261 0.93756104c-0.41046143 0 -0.7033081 -0.41049194 -0.7033081 -0.93756104c0 -0.40995026 0.23425293 -0.87846375 0.7033081 -0.87846375zm0.05859375 -0.29335785c-0.7033081 0 -1.171875 0.46905518 -1.171875 1.2303848c0 0.7033081 0.4685669 1.171814 1.0546875 1.171814c0.5270996 0 1.1127319 -0.3513794 1.1127319 -1.2303772c0 -0.35138702 -0.117126465 -0.7027664 -0.4099121 -0.87846375l0.5856323 0l0.058532715 -0.29335785z" fill-rule="evenodd"/><path fill="#000000" fill-opacity="0.0" d="m410.78873 97.92388l242.1417 0l0 40.88189l-242.1417 0z" fill-rule="evenodd"/><path fill="#ffffff" d="m445.15814 124.84388l0 -13.359375l4.609375 0q1.546875 0 2.375 0.203125q1.140625 0.25 1.953125 0.953125q1.0625 0.890625 1.578125 2.28125q0.53125 1.390625 0.53125 3.171875q0 1.515625 -0.359375 2.703125q-0.359375 1.171875 -0.921875 1.9375q-0.546875 0.765625 -1.203125 1.21875q-0.65625 0.4375 -1.59375 0.671875q-0.9375 0.21875 -2.140625 0.21875l-4.828125 0zm1.765625 -1.578125l2.859375 0q1.3125 0 2.0625 -0.234375q0.75 -0.25 1.203125 -0.703125q0.625 -0.625 0.96875 -1.6875q0.359375 -1.0625 0.359375 -2.578125q0 -2.09375 -0.6875 -3.21875q-0.6875 -1.125 -1.671875 -1.5q-0.703125 -0.28125 -2.28125 -0.28125l-2.8125 0l0 10.203125zm11.504211 -9.890625l0 -1.890625l1.640625 0l0 1.890625l-1.640625 0zm0 11.46875l0 -9.671875l1.640625 0l0 9.671875l-1.640625 0zm3.488556 -2.890625l1.625 -0.25q0.125 0.96875 0.75 1.5q0.625 0.515625 1.75 0.515625q1.125 0 1.671875 -0.453125q0.546875 -0.46875 0.546875 -1.09375q0 -0.546875 -0.484375 -0.875q-0.328125 -0.21875 -1.671875 -0.546875q-1.8125 -0.46875 -2.515625 -0.796875q-0.6875 -0.328125 -1.046875 -0.90625q-0.359375 -0.59375 -0.359375 -1.3125q0 -0.640625 0.296875 -1.1875q0.296875 -0.5625 0.8125 -0.921875q0.375 -0.28125 1.03125 -0.46875q0.671875 -0.203125 1.421875 -0.203125q1.140625 0 2.0 0.328125q0.859375 0.328125 1.265625 0.890625q0.421875 0.5625 0.578125 1.5l-1.609375 0.21875q-0.109375 -0.75 -0.640625 -1.171875q-0.515625 -0.421875 -1.46875 -0.421875q-1.140625 0 -1.625 0.375q-0.46875 0.375 -0.46875 0.875q0 0.3125 0.1875 0.578125q0.203125 0.265625 0.640625 0.4375q0.234375 0.09375 1.4375 0.421875q1.75 0.453125 2.4375 0.75q0.6875 0.296875 1.078125 0.859375q0.390625 0.5625 0.390625 1.40625q0 0.828125 -0.484375 1.546875q-0.46875 0.71875 -1.375 1.125q-0.90625 0.390625 -2.046875 0.390625q-1.875 0 -2.875 -0.78125q-0.984375 -0.78125 -1.25 -2.328125zm13.5625 1.421875l0.234375 1.453125q-0.6875 0.140625 -1.234375 0.140625q-0.890625 0 -1.390625 -0.28125q-0.484375 -0.28125 -0.6875 -0.734375q-0.203125 -0.46875 -0.203125 -1.9375l0 -5.578125l-1.203125 0l0 -1.265625l1.203125 0l0 -2.390625l1.625 -0.984375l0 3.375l1.65625 0l0 1.265625l-1.65625 0l0 5.671875q0 0.6875 0.078125 0.890625q0.09375 0.203125 0.28125 0.328125q0.203125 0.109375 0.578125 0.109375q0.265625 0 0.71875 -0.0625zm1.5895691 1.46875l0 -9.671875l1.46875 0l0 1.46875q0.5625 -1.03125 1.03125 -1.359375q0.484375 -0.328125 1.0625 -0.328125q0.828125 0 1.6875 0.53125l-0.5625 1.515625q-0.609375 -0.359375 -1.203125 -0.359375q-0.546875 0 -0.96875 0.328125q-0.421875 0.328125 -0.609375 0.890625q-0.28125 0.875 -0.28125 1.921875l0 5.0625l-1.625 0zm6.228302 -11.46875l0 -1.890625l1.640625 0l0 1.890625l-1.640625 0zm0 11.46875l0 -9.671875l1.640625 0l0 9.671875l-1.640625 0zm5.644806 0l-1.515625 0l0 -13.359375l1.640625 0l0 4.765625q1.046875 -1.296875 2.65625 -1.296875q0.890625 0 1.6875 0.359375q0.796875 0.359375 1.3125 1.015625q0.515625 0.640625 0.796875 1.5625q0.296875 0.921875 0.296875 1.96875q0 2.484375 -1.234375 3.84375q-1.21875 1.359375 -2.953125 1.359375q-1.703125 0 -2.6875 -1.4375l0 1.21875zm-0.015625 -4.90625q0 1.734375 0.484375 2.515625q0.765625 1.265625 2.09375 1.265625q1.078125 0 1.859375 -0.9375q0.78125 -0.9375 0.78125 -2.78125q0 -1.890625 -0.75 -2.796875q-0.75 -0.90625 -1.828125 -0.90625q-1.0625 0 -1.859375 0.9375q-0.78125 0.9375 -0.78125 2.703125zm15.219482 4.90625l0 -1.421875q-1.125 1.640625 -3.0625 1.640625q-0.859375 0 -1.609375 -0.328125q-0.734375 -0.328125 -1.09375 -0.828125q-0.359375 -0.5 -0.5 -1.21875q-0.109375 -0.46875 -0.109375 -1.53125l0 -5.984375l1.640625 0l0 5.359375q0 1.28125 0.109375 1.734375q0.15625 0.640625 0.65625 1.015625q0.5 0.375 1.234375 0.375q0.734375 0 1.375 -0.375q0.65625 -0.390625 0.921875 -1.03125q0.265625 -0.65625 0.265625 -1.890625l0 -5.1875l1.640625 0l0 9.671875l-1.46875 0zm7.625702 -1.46875l0.23440552 1.453125q-0.6875305 0.140625 -1.2344055 0.140625q-0.890625 0 -1.390625 -0.28125q-0.484375 -0.28125 -0.6875 -0.734375q-0.203125 -0.46875 -0.203125 -1.9375l0 -5.578125l-1.203125 0l0 -1.265625l1.203125 0l0 -2.390625l1.625 -0.984375l0 3.375l1.65625 0l0 1.265625l-1.65625 0l0 5.671875q0 0.6875 0.078125 0.890625q0.09375 0.203125 0.28125 0.328125q0.203125 0.109375 0.578125 0.109375q0.265625 0 0.71875 -0.0625zm1.6051941 -10.0l0 -1.890625l1.640625 0l0 1.890625l-1.640625 0zm0 11.46875l0 -9.671875l1.640625 0l0 9.671875l-1.640625 0zm3.5354614 -4.84375q0 -2.6875 1.484375 -3.96875q1.25 -1.078125 3.046875 -1.078125q2.0 0 3.265625 1.3125q1.265625 1.296875 1.265625 3.609375q0 1.859375 -0.5625 2.9375q-0.5625 1.0625 -1.640625 1.65625q-1.0625 0.59375 -2.328125 0.59375q-2.03125 0 -3.28125 -1.296875q-1.25 -1.3125 -1.25 -3.765625zm1.6875 0q0 1.859375 0.796875 2.796875q0.8125 0.921875 2.046875 0.921875q1.21875 0 2.03125 -0.921875q0.8125 -0.9375 0.8125 -2.84375q0 -1.796875 -0.8125 -2.71875q-0.8125 -0.921875 -2.03125 -0.921875q-1.234375 0 -2.046875 0.921875q-0.796875 0.90625 -0.796875 2.765625zm9.297546 4.84375l0 -9.671875l1.46875 0l0 1.375q1.0625 -1.59375 3.078125 -1.59375q0.875 0 1.609375 0.3125q0.734375 0.3125 1.09375 0.828125q0.375 0.5 0.515625 1.203125q0.09375 0.453125 0.09375 1.59375l0 5.953125l-1.640625 0l0 -5.890625q0 -1.0 -0.203125 -1.484375q-0.1875 -0.5 -0.671875 -0.796875q-0.484375 -0.296875 -1.140625 -0.296875q-1.046875 0 -1.8125 0.671875q-0.75 0.65625 -0.75 2.515625l0 5.28125l-1.640625 0zm14.949646 -4.84375q0 -2.6875 1.484375 -3.96875q1.25 -1.078125 3.046875 -1.078125q2.0 0 3.265625 1.3125q1.265625 1.296875 1.265625 3.609375q0 1.859375 -0.5625 2.9375q-0.5625 1.0625 -1.640625 1.65625q-1.0625 0.59375 -2.328125 0.59375q-2.03125 0 -3.28125 -1.296875q-1.25 -1.3125 -1.25 -3.765625zm1.6875 0q0 1.859375 0.796875 2.796875q0.8125 0.921875 2.046875 0.921875q1.21875 0 2.03125 -0.921875q0.8125 -0.9375 0.8125 -2.84375q0 -1.796875 -0.8125 -2.71875q-0.8125 -0.921875 -2.03125 -0.921875q-1.234375 0 -2.046875 0.921875q-0.796875 0.90625 -0.796875 2.765625zm9.688232 4.84375l0 -8.40625l-1.453125 0l0 -1.265625l1.453125 0l0 -1.03125q0 -0.96875 0.171875 -1.453125q0.234375 -0.640625 0.828125 -1.03125q0.59375 -0.390625 1.671875 -0.390625q0.6875 0 1.53125 0.15625l-0.25 1.4375q-0.5 -0.09375 -0.953125 -0.09375q-0.75 0 -1.0625 0.328125q-0.3125 0.3125 -0.3125 1.1875l0 0.890625l1.890625 0l0 1.265625l-1.890625 0l0 8.40625l-1.625 0zm13.554138 -1.46875l0.234375 1.453125q-0.6875 0.140625 -1.234375 0.140625q-0.890625 0 -1.390625 -0.28125q-0.484375 -0.28125 -0.6875 -0.734375q-0.203125 -0.46875 -0.203125 -1.9375l0 -5.578125l-1.203125 0l0 -1.265625l1.203125 0l0 -2.390625l1.625 -0.984375l0 3.375l1.65625 0l0 1.265625l-1.65625 0l0 5.671875q0 0.6875 0.078125 0.890625q0.09375 0.203125 0.28125 0.328125q0.203125 0.109375 0.578125 0.109375q0.265625 0 0.71875 -0.0625zm7.9176636 0.28125q-0.921875 0.765625 -1.765625 1.09375q-0.828125 0.3125 -1.796875 0.3125q-1.59375 0 -2.453125 -0.78125q-0.859375 -0.78125 -0.859375 -1.984375q0 -0.71875 0.328125 -1.296875q0.328125 -0.59375 0.84375 -0.9375q0.53125 -0.359375 1.1875 -0.546875q0.46875 -0.125 1.453125 -0.25q1.984375 -0.234375 2.921875 -0.5625q0.015625 -0.34375 0.015625 -0.421875q0 -1.0 -0.46875 -1.421875q-0.625 -0.546875 -1.875 -0.546875q-1.15625 0 -1.703125 0.40625q-0.546875 0.40625 -0.8125 1.421875l-1.609375 -0.21875q0.21875 -1.015625 0.71875 -1.640625q0.5 -0.640625 1.453125 -0.984375q0.953125 -0.34375 2.1875 -0.34375q1.25 0 2.015625 0.296875q0.78125 0.28125 1.140625 0.734375q0.375 0.4375 0.515625 1.109375q0.078125 0.421875 0.078125 1.515625l0 2.1875q0 2.28125 0.109375 2.890625q0.109375 0.59375 0.40625 1.15625l-1.703125 0q-0.265625 -0.515625 -0.328125 -1.1875zm-0.140625 -3.671875q-0.890625 0.375 -2.671875 0.625q-1.015625 0.140625 -1.4375 0.328125q-0.421875 0.1875 -0.65625 0.53125q-0.21875 0.34375 -0.21875 0.78125q0 0.65625 0.5 1.09375q0.5 0.4375 1.453125 0.4375q0.9375 0 1.671875 -0.40625q0.75 -0.421875 1.09375 -1.140625q0.265625 -0.5625 0.265625 -1.640625l0 -0.609375zm4.1882324 4.859375l0 -9.671875l1.46875 0l0 1.46875q0.5625 -1.03125 1.03125 -1.359375q0.484375 -0.328125 1.0625 -0.328125q0.828125 0 1.6875 0.53125l-0.5625 1.515625q-0.609375 -0.359375 -1.203125 -0.359375q-0.546875 0 -0.96875 0.328125q-0.421875 0.328125 -0.609375 0.890625q-0.28125 0.875 -0.28125 1.921875l0 5.0625l-1.625 0zm5.9157715 0.796875l1.59375 0.234375q0.109375 0.75 0.5625 1.078125q0.609375 0.453125 1.671875 0.453125q1.140625 0 1.75 -0.453125q0.625 -0.453125 0.84375 -1.265625q0.125 -0.5 0.109375 -2.109375q-1.0625 1.265625 -2.671875 1.265625q-2.0 0 -3.09375 -1.4375q-1.09375 -1.4375 -1.09375 -3.453125q0 -1.390625 0.5 -2.5625q0.515625 -1.171875 1.453125 -1.796875q0.953125 -0.640625 2.25 -0.640625q1.703125 0 2.8125 1.375l0 -1.15625l1.515625 0l0 8.359375q0 2.265625 -0.46875 3.203125q-0.453125 0.9375 -1.453125 1.4843826q-0.984375 0.546875 -2.453125 0.546875q-1.71875 0 -2.796875 -0.7812576q-1.0625 -0.765625 -1.03125 -2.34375zm1.359375 -5.8125q0 1.90625 0.75 2.78125q0.765625 0.875 1.90625 0.875q1.125 0 1.890625 -0.859375q0.765625 -0.875 0.765625 -2.734375q0 -1.78125 -0.796875 -2.671875q-0.78125 -0.90625 -1.890625 -0.90625q-1.09375 0 -1.859375 0.890625q-0.765625 0.875 -0.765625 2.625zm15.953857 1.90625l1.6875 0.203125q-0.40625 1.484375 -1.484375 2.3125q-1.078125 0.8125 -2.765625 0.8125q-2.125 0 -3.375 -1.296875q-1.234375 -1.3125 -1.234375 -3.671875q0 -2.453125 1.25 -3.796875q1.265625 -1.34375 3.265625 -1.34375q1.9375 0 3.15625 1.328125q1.234375 1.3125 1.234375 3.703125q0 0.15625 0 0.4375l-7.21875 0q0.09375 1.59375 0.90625 2.453125q0.8125 0.84375 2.015625 0.84375q0.90625 0 1.546875 -0.46875q0.640625 -0.484375 1.015625 -1.515625zm-5.390625 -2.65625l5.40625 0q-0.109375 -1.21875 -0.625 -1.828125q-0.78125 -0.953125 -2.03125 -0.953125q-1.125 0 -1.90625 0.765625q-0.765625 0.75 -0.84375 2.015625zm12.719482 4.296875l0.234375 1.453125q-0.6875 0.140625 -1.234375 0.140625q-0.890625 0 -1.390625 -0.28125q-0.484375 -0.28125 -0.6875 -0.734375q-0.203125 -0.46875 -0.203125 -1.9375l0 -5.578125l-1.203125 0l0 -1.265625l1.203125 0l0 -2.390625l1.625 -0.984375l0 3.375l1.65625 0l0 1.265625l-1.65625 0l0 5.671875q0 0.6875 0.078125 0.890625q0.09375 0.203125 0.28125 0.328125q0.203125 0.109375 0.578125 0.109375q0.265625 0 0.71875 -0.0625zm0.9489136 -1.421875l1.625 -0.25q0.125 0.96875 0.75 1.5q0.625 0.515625 1.75 0.515625q1.125 0 1.671875 -0.453125q0.546875 -0.46875 0.546875 -1.09375q0 -0.546875 -0.484375 -0.875q-0.328125 -0.21875 -1.671875 -0.546875q-1.8125 -0.46875 -2.515625 -0.796875q-0.6875 -0.328125 -1.046875 -0.90625q-0.359375 -0.59375 -0.359375 -1.3125q0 -0.640625 0.296875 -1.1875q0.296875 -0.5625 0.8125 -0.921875q0.375 -0.28125 1.03125 -0.46875q0.671875 -0.203125 1.421875 -0.203125q1.140625 0 2.0 0.328125q0.859375 0.328125 1.265625 0.890625q0.421875 0.5625 0.578125 1.5l-1.609375 0.21875q-0.109375 -0.75 -0.640625 -1.171875q-0.515625 -0.421875 -1.46875 -0.421875q-1.140625 0 -1.625 0.375q-0.46875 0.375 -0.46875 0.875q0 0.3125 0.1875 0.578125q0.203125 0.265625 0.640625 0.4375q0.234375 0.09375 1.4375 0.421875q1.75 0.453125 2.4375 0.75q0.6875 0.296875 1.078125 0.859375q0.390625 0.5625 0.390625 1.40625q0 0.828125 -0.484375 1.546875q-0.46875 0.71875 -1.375 1.125q-0.90625 0.390625 -2.046875 0.390625q-1.875 0 -2.875 -0.78125q-0.984375 -0.78125 -1.25 -2.328125z" fill-rule="nonzero"/><path fill="#000000" fill-opacity="0.0" d="m525.01575 41.328083l0 0c0 -3.9225235 3.1798096 -7.10236 7.102356 -7.10236l0 0c1.883667 0 3.6901855 0.7482796 5.022156 2.0802307c1.3319092 1.3319511 2.0802002 3.138466 2.0802002 5.022129l0 0c0 3.9225273 -3.1798096 7.1023636 -7.102356 7.1023636l0 0c-3.9225464 0 -7.102356 -3.1798363 -7.102356 -7.1023636z" fill-rule="evenodd"/><path stroke="#ff0000" stroke-width="4.0" stroke-linejoin="round" stroke-linecap="butt" d="m525.01575 41.328083l0 0c0 -3.9225235 3.1798096 -7.10236 7.102356 -7.10236l0 0c1.883667 0 3.6901855 0.7482796 5.022156 2.0802307c1.3319092 1.3319511 2.0802002 3.138466 2.0802002 5.022129l0 0c0 3.9225273 -3.1798096 7.1023636 -7.102356 7.1023636l0 0c-3.9225464 0 -7.102356 -3.1798363 -7.102356 -7.1023636z" fill-rule="evenodd"/><path fill="#000000" fill-opacity="0.0" d="m174.38866 82.090706l350.61414 -40.7559" fill-rule="evenodd"/><path stroke="#ffffff" stroke-width="4.0" stroke-linejoin="round" stroke-linecap="butt" d="m174.38866 82.09071l326.77466 -37.98477" fill-rule="evenodd"/><path fill="#ffffff" stroke="#ffffff" stroke-width="4.0" stroke-linecap="butt" d="m501.9262 50.66868l17.268127 -8.658688l-18.793854 -4.466793z" fill-rule="evenodd"/></g></svg>