<svg version="1.1" viewBox="0.0 0.0 520.2860892388452 170.48293963254594" fill="none" stroke="none" stroke-linecap="square" stroke-miterlimit="10" xmlns:xlink="http://www.w3.org/1999/xlink" xmlns="http://www.w3.org/2000/svg"><clipPath id="p.0"><path d="m0 0l520.2861 0l0 170.48294l-520.2861 0l0 -170.48294z" clip-rule="nonzero"/></clipPath><g clip-path="url(#p.0)"><path fill="#000000" fill-opacity="0.0" d="m0 0l520.2861 0l0 170.48294l-520.2861 0z" fill-rule="evenodd"/><path fill="#cfe2f3" d="m14.8149605 59.949173l107.43616 0l0 47.755554c-53.715187 0 -53.715187 18.373917 -107.43616 9.186958zm8.851421 0l0 -6.1912117l106.70238 0l0 48.055126c-4.055931 0 -8.117645 0.33286285 -8.117645 0.33286285l0 -42.196777zm8.319874 -6.1912117l0 -6.0414276l107.626816 0l0 47.90534c-4.6221466 0 -9.244308 0.24964905 -9.244308 0.24964905l0 -42.11356z" fill-rule="evenodd"/><path fill="#000000" fill-opacity="0.0" d="m14.8149605 59.949173l107.43616 0l0 47.755554c-53.715187 0 -53.715187 18.373917 -107.43616 9.186958zm8.851421 0l0 -6.1912117l106.70238 0l0 48.055126c-4.055931 0 -8.117645 0.33286285 -8.117645 0.33286285m-90.26486 -48.38799l0 -6.0414276l107.626816 0l0 47.90534c-4.6221466 0 -9.244308 0.24964905 -9.244308 0.24964905" fill-rule="evenodd"/><path fill="#000000" fill-opacity="0.0" d="m14.8149605 116.891685c53.720966 9.186958 53.720966 -9.186958 107.43616 -9.186958l0 -5.558777c0 0 4.061714 -0.33286285 8.117645 -0.33286285l0 -5.9415665c0 0 4.622162 -0.24964905 9.244308 -0.24964905l0 -47.90534l-107.626816 0l0 6.0414276l-8.319874 0l0 6.1912117l-8.851421 0z" fill-rule="evenodd"/><path stroke="#000000" stroke-width="1.0" stroke-linejoin="round" stroke-linecap="butt" d="m14.8149605 59.949173l107.43616 0l0 47.755554c-53.715187 0 -53.715187 18.373917 -107.43616 9.186958zm8.851421 0l0 -6.1912117l106.70238 0l0 48.055126c-4.055931 0 -8.117645 0.33286285 -8.117645 0.33286285m-90.26486 -48.38799l0 -6.0414276l107.626816 0l0 47.90534c-4.6221466 0 -9.244308 0.24964905 -9.244308 0.24964905" fill-rule="evenodd"/><path fill="#000000" d="m25.28371 95.34043l0 -13.359375l9.65625 0l0 1.578125l-7.875 0l0 4.09375l7.375 0l0 1.5625l-7.375 0l0 4.546875l8.1875 0l0 1.578125l-9.96875 0zm11.115448 0l3.53125 -5.03125l-3.265625 -4.640625l2.046875 0l1.484375 2.265625q0.421875 0.640625 0.671875 1.078125q0.40625 -0.59375 0.734375 -1.0625l1.640625 -2.28125l1.953125 0l-3.34375 4.546875l3.59375 5.125l-2.015625 0l-1.984375 -3.0l-0.515625 -0.8125l-2.546875 3.8125l-1.984375 0zm16.734375 -1.1875q-0.921875 0.765625 -1.765625 1.09375q-0.828125 0.3125 -1.796875 0.3125q-1.59375 0 -2.453125 -0.78125q-0.859375 -0.78125 -0.859375 -1.984375q0 -0.71875 0.328125 -1.296875q0.328125 -0.59375 0.84375 -0.9375q0.53125 -0.359375 1.1875 -0.546875q0.46875 -0.125 1.453125 -0.25q1.984375 -0.234375 2.921875 -0.5625q0.015625 -0.34375 0.015625 -0.421875q0 -1.0 -0.46875 -1.421875q-0.625 -0.546875 -1.875 -0.546875q-1.15625 0 -1.703125 0.40625q-0.546875 0.40625 -0.8125 1.421875l-1.609375 -0.21875q0.21875 -1.015625 0.71875 -1.640625q0.5 -0.640625 1.453125 -0.984375q0.953125 -0.34375 2.1875 -0.34375q1.25 0 2.015625 0.296875q0.78125 0.28125 1.140625 0.734375q0.375 0.4375 0.515625 1.109375q0.078125 0.421875 0.078125 1.515625l0 2.1875q0 2.28125 0.109375 2.890625q0.109375 0.59375 0.40625 1.15625l-1.703125 0q-0.265625 -0.515625 -0.328125 -1.1875zm-0.140625 -3.671875q-0.890625 0.375 -2.671875 0.625q-1.015625 0.140625 -1.4375 0.328125q-0.421875 0.1875 -0.65625 0.53125q-0.21875 0.34375 -0.21875 0.78125q0 0.65625 0.5 1.09375q0.5 0.4375 1.453125 0.4375q0.9375 0 1.671875 -0.40625q0.75 -0.421875 1.09375 -1.140625q0.265625 -0.5625 0.265625 -1.640625l0 -0.609375zm4.203842 4.859375l0 -9.671875l1.46875 0l0 1.359375q0.453125 -0.71875 1.203125 -1.140625q0.765625 -0.4375 1.71875 -0.4375q1.078125 0 1.765625 0.453125q0.6875038 0.4375 0.9687538 1.234375q1.15625 -1.6875 2.984375 -1.6875q1.453125 0 2.21875 0.796875q0.78125 0.796875 0.78125 2.453125l0 6.640625l-1.640625 0l0 -6.09375q0 -0.984375 -0.15625 -1.40625q-0.15625 -0.4375 -0.578125 -0.703125q-0.421875 -0.265625 -0.984375 -0.265625q-1.015625 0 -1.6875 0.6875q-0.671875 0.671875 -0.671875 2.15625l0 5.625l-1.6406288 0l0 -6.28125q0 -1.09375 -0.40625 -1.640625q-0.40625 -0.546875 -1.3125 -0.546875q-0.6875 0 -1.28125 0.359375q-0.59375 0.359375 -0.859375 1.0625q-0.25 0.703125 -0.25 2.03125l0 5.015625l-1.640625 0zm15.540806 3.703125l0 -13.375l1.484375 0l0 1.25q0.53125 -0.734375 1.1875 -1.09375q0.671875 -0.375 1.625 -0.375q1.234375 0 2.171875 0.640625q0.953125 0.625 1.4375 1.796875q0.484375 1.15625 0.484375 2.546875q0 1.484375 -0.53125 2.671875q-0.53125 1.1875 -1.546875 1.828125q-1.015625 0.625 -2.140625 0.625q-0.8125 0 -1.46875 -0.34375q-0.65625 -0.34375 -1.0625 -0.875l0 4.703125l-1.640625 0zm1.484375 -8.484375q0 1.859375 0.75 2.765625q0.765625 0.890625 1.828125 0.890625q1.09375 0 1.875 -0.921875q0.78125 -0.9375 0.78125 -2.875q0 -1.84375 -0.765625 -2.765625q-0.75 -0.921875 -1.8125 -0.921875q-1.046875 0 -1.859375 0.984375q-0.796875 0.96875 -0.796875 2.84375zm8.844467 4.78125l0 -13.359375l1.640625 0l0 13.359375l-1.640625 0zm10.816696 -3.109375l1.6875 0.203125q-0.40625 1.484375 -1.484375 2.3125q-1.078125 0.8125 -2.765625 0.8125q-2.125 0 -3.375 -1.296875q-1.234375 -1.3125 -1.234375 -3.671875q0 -2.453125 1.25 -3.796875q1.265625 -1.34375 3.265625 -1.34375q1.9375 0 3.15625 1.328125q1.234375 1.3125 1.234375 3.703125q0 0.15625 0 0.4375l-7.21875 0q0.09375 1.59375 0.90625 2.453125q0.8125 0.84375 2.015625 0.84375q0.90625 0 1.546875 -0.46875q0.640625 -0.484375 1.015625 -1.515625zm-5.390625 -2.65625l5.40625 0q-0.109375 -1.21875 -0.625 -1.828125q-0.78125 -0.953125 -2.03125 -0.953125q-1.125 0 -1.90625 0.765625q-0.765625 0.75 -0.84375 2.015625zm8.485092 2.875l1.625 -0.25q0.125 0.96875 0.75 1.5q0.625 0.515625 1.75 0.515625q1.125 0 1.671875 -0.453125q0.546875 -0.46875 0.546875 -1.09375q0 -0.546875 -0.484375 -0.875q-0.328125 -0.21875 -1.671875 -0.546875q-1.8125 -0.46875 -2.515625 -0.796875q-0.6875 -0.328125 -1.046875 -0.90625q-0.359375 -0.59375 -0.359375 -1.3125q0 -0.640625 0.296875 -1.1875q0.296875 -0.5625 0.8125 -0.921875q0.375 -0.28125 1.03125 -0.46875q0.671875 -0.203125 1.421875 -0.203125q1.140625 0 2.0 0.328125q0.859375 0.328125 1.265625 0.890625q0.421875 0.5625 0.578125 1.5l-1.609375 0.21875q-0.109375 -0.75 -0.640625 -1.171875q-0.515625 -0.421875 -1.46875 -0.421875q-1.140625 0 -1.625 0.375q-0.46875 0.375 -0.46875 0.875q0 0.3125 0.1875 0.578125q0.203125 0.265625 0.640625 0.4375q0.234375 0.09375 1.4375 0.421875q1.75 0.453125 2.4375 0.75q0.6875 0.296875 1.078125 0.859375q0.390625 0.5625 0.390625 1.40625q0 0.828125 -0.484375 1.546875q-0.46875 0.71875 -1.375 1.125q-0.90625 0.390625 -2.046875 0.390625q-1.875 0 -2.875 -0.78125q-0.984375 -0.78125 -1.25 -2.328125z" fill-rule="nonzero"/><path fill="#ed1c24" d="m437.78207 33.80363l0.3416443 1.5984955l0.32363892 -1.5984955z" fill-rule="evenodd"/><path fill="#ed1c24" d="m449.02237 33.80363l0.32348633 1.5984955l0.34161377 -1.5984955z" fill-rule="evenodd"/><path fill="#39b54a" d="m443.39322 33.80363l0.3416443 1.5984955l0.34146118 -1.5984955z" fill-rule="evenodd"/><path fill="#000000" fill-opacity="0.0" d="m421.2546 33.01808l44.925293 0" fill-rule="evenodd"/><path stroke="#000000" stroke-width="2.5511811023622046" stroke-linejoin="round" stroke-linecap="round" d="m421.2546 33.01808l44.925293 0" fill-rule="evenodd"/><path fill="#000000" fill-opacity="0.0" d="m438.12384 16.38157l0 17.723349" fill-rule="evenodd"/><path stroke="#ed1c24" stroke-width="2.5511811023622046" stroke-miterlimit="108.034" stroke-linecap="round" d="m438.12384 16.38157l0 17.723349" fill-rule="evenodd"/><path fill="#000000" fill-opacity="0.0" d="m449.34598 16.353525l0 17.751383" fill-rule="evenodd"/><path stroke="#ed1c24" stroke-width="2.5511811023622046" stroke-linejoin="round" stroke-linecap="round" d="m449.34598 16.353525l0 17.751383" fill-rule="evenodd"/><path fill="#000000" fill-opacity="0.0" d="m443.735 5.552415l0 28.548096" fill-rule="evenodd"/><path stroke="#39b54a" stroke-width="2.5511811023622046" stroke-linejoin="round" stroke-linecap="round" d="m443.735 5.552415l0 28.548096" fill-rule="evenodd"/><path fill="#000000" fill-opacity="0.0" d="m421.2546 33.006878c1.0246887 -0.028038025 2.031433 -0.028038025 3.0561523 -0.056072235c0.9708252 -0.05606842 1.9416199 -0.11213684 2.894287 -0.30863953c1.0247192 -0.19624329 2.0314636 -0.5326576 2.9842834 -1.1496792c0.9528198 -0.58898735 1.7976685 -1.514391 2.588745 -2.5799675c0.75497437 -1.0375404 1.4202576 -2.327654 1.9955139 -3.617508c0.61120605 -1.3461819 1.1685181 -2.720398 1.671875 -4.150425c0.53930664 -1.4863548 1.0426941 -2.9727097 1.5640259 -4.4590664c0.4854126 -1.4863548 0.98876953 -2.944416 1.5101318 -4.4027367c0.50335693 -1.4022512 1.0426941 -2.8045025 1.6718445 -4.0663214c0.3416443 -0.6730914 0.7010803 -1.2620783 1.1145935 -1.7947369c0.39553833 -0.5048828 0.8629761 -0.7852297 1.366333 -0.8412986c0.5213623 -0.08410406 0.98861694 0.33641577 1.4021301 0.757195c0.43148804 0.44855404 0.7731018 1.0936108 1.0965881 1.7106323c0.6652832 1.2618189 1.2046204 2.7201395 1.7259521 4.150426c0.5213623 1.3739567 0.98861694 2.804243 1.4560547 4.2064943c0.50335693 1.514391 1.0067444 3.0004864 1.546051 4.458807c0.5213318 1.4302864 1.060669 2.8325367 1.6539001 4.150425c0.61135864 1.3742161 1.2764893 2.6640701 2.0494385 3.7859745c0.7731018 1.1216469 1.6358948 1.9909801 2.5707703 2.636036c0.89889526 0.6450577 1.9056396 0.981472 2.8764648 1.1777153c0.9885864 0.19650269 1.9953308 0.28060532 3.0020752 0.30863953c0.98880005 0.05606842 1.9955444 0.05606842 2.984314 0.084106445c0.053894043 0 0.1078186 0 0.14376831 0" fill-rule="evenodd"/><path stroke="#0071bc" stroke-width="2.5511811023622046" stroke-linejoin="round" stroke-linecap="round" d="m421.2546 33.006878c1.0246887 -0.028038025 2.031433 -0.028038025 3.0561523 -0.056072235c0.9708252 -0.05606842 1.9416199 -0.11213684 2.894287 -0.30863953c1.0247192 -0.19624329 2.0314636 -0.5326576 2.9842834 -1.1496792c0.9528198 -0.58898735 1.7976685 -1.514391 2.588745 -2.5799675c0.75497437 -1.0375404 1.4202576 -2.327654 1.9955139 -3.617508c0.61120605 -1.3461819 1.1685181 -2.720398 1.671875 -4.150425c0.53930664 -1.4863548 1.0426941 -2.9727097 1.5640259 -4.4590664c0.4854126 -1.4863548 0.98876953 -2.944416 1.5101318 -4.4027367c0.50335693 -1.4022512 1.0426941 -2.8045025 1.6718445 -4.0663214c0.3416443 -0.6730914 0.7010803 -1.2620783 1.1145935 -1.7947369c0.39553833 -0.5048828 0.8629761 -0.7852297 1.366333 -0.8412986c0.5213623 -0.08410406 0.98861694 0.33641577 1.4021301 0.757195c0.43148804 0.44855404 0.7731018 1.0936108 1.0965881 1.7106323c0.6652832 1.2618189 1.2046204 2.7201395 1.7259521 4.150426c0.5213623 1.3739567 0.98861694 2.804243 1.4560547 4.2064943c0.50335693 1.514391 1.0067444 3.0004864 1.546051 4.458807c0.5213318 1.4302864 1.060669 2.8325367 1.6539001 4.150425c0.61135864 1.3742161 1.2764893 2.6640701 2.0494385 3.7859745c0.7731018 1.1216469 1.6358948 1.9909801 2.5707703 2.636036c0.89889526 0.6450577 1.9056396 0.981472 2.8764648 1.1777153c0.9885864 0.19650269 1.9953308 0.28060532 3.0020752 0.30863953c0.98880005 0.05606842 1.9955444 0.05606842 2.984314 0.084106445c0.053894043 0 0.1078186 0 0.14376831 0" fill-rule="evenodd"/><path fill="#39b54a" d="m443.39322 36.075882l0 1.1499405c0 0.19623947 0.017974854 0.33641434 0.035949707 0.42051697l0.10784912 0c-0.017974854 -0.11213684 -0.017974854 -0.30838013 -0.017974854 -0.42051697l0 -0.14017487c0.035949707 0.08410263 0.08984375 0.11213684 0.16189575 0.11213684c0.10784912 0 0.17971802 -0.08410263 0.19769287 -0.19623947c0.017974854 0.16820526 0.071899414 0.19623947 0.12579346 0.19623947l0.05392456 0l0.017974854 -0.14017105c-0.05392456 0 -0.071899414 -0.05606842 -0.071899414 -0.16846848l0 -0.81326294l-0.12579346 0l0 0.6730919c0 0.05606842 -0.017974854 0.08410263 -0.017974854 0.11213684c-0.017974854 0.08436203 -0.08984375 0.19650269 -0.16174316 0.19650269c-0.12597656 0 -0.16189575 -0.14043427 -0.16189575 -0.33667755l0 -0.64505386z" fill-rule="evenodd"/><path fill="#ed1c24" d="m448.15906 36.132233l0 1.1496811c0 0.16820526 0.017974854 0.33641434 0.035949707 0.42051697l0.1078186 0c-0.017974854 -0.11213684 -0.017974854 -0.30838013 -0.017974854 -0.42051697l0 -0.14017487c0.035949707 0.084106445 0.08987427 0.112140656 0.16192627 0.112140656c0.1078186 0 0.16174316 -0.084106445 0.19769287 -0.19624329c0.017974854 0.14017105 0.0718689 0.19624329 0.12579346 0.19624329l0.05392456 0l0 -0.14017487c-0.05392456 0 -0.05392456 -0.05606842 -0.05392456 -0.16820908l0 -0.81326294l-0.12579346 0l0 0.6728325c0 0.05606842 -0.017974854 0.08410263 -0.017974854 0.11213684c-0.017974854 0.084365845 -0.08987427 0.19650269 -0.17971802 0.19650269c-0.10800171 0 -0.14395142 -0.16820908 -0.14395142 -0.33667374l0 -0.6447983z" fill-rule="evenodd"/><path fill="#ed1c24" d="m449.25595 36.01979l0 0.532917l-0.32348633 0l0 0.14017105l0.32348633 0l0 0.56095505l0.08987427 0l0 -0.56095505l0.34161377 0l0 -0.14017105l-0.34161377 0l0 -0.532917z" fill-rule="evenodd"/><path fill="#ed1c24" d="m450.13724 36.272396c0.16174316 0 0.21566772 0.2242775 0.21566772 0.42051697c0 0.2525711 -0.08987427 0.42078018 -0.21566772 0.42078018c-0.1078186 0 -0.19784546 -0.16820908 -0.19784546 -0.42078018c0 -0.19623947 0.05407715 -0.42051697 0.19784546 -0.42051697zm0.035949707 -0.16846848c-0.21582031 0 -0.37756348 0.2245369 -0.37756348 0.58898544c0 0.36471176 0.16174316 0.56095505 0.34161377 0.56095505c0.16174316 0 0.34146118 -0.16820908 0.34146118 -0.56095505c0 -0.16820526 -0.05392456 -0.33641434 -0.12579346 -0.42051697l0 -0.02803421c0.08984375 0.02803421 0.14376831 0.02803421 0.1798706 0.02803421l0 -0.16846848z" fill-rule="evenodd"/><path fill="#ed1c24" d="m436.93692 36.103928l0 1.1499405c0 0.16820526 0 0.33641434 0.017974854 0.39248276l0.1078186 0c0 -0.08410263 -0.017974854 -0.28034592 -0.017974854 -0.42051697l0 -0.14017487c0.035949707 0.08410263 0.08987427 0.14017487 0.16174316 0.14017487c0.10800171 0 0.17990112 -0.112140656 0.19787598 -0.19624329l0.017974854 0c0 0.14017105 0.053894043 0.19624329 0.12579346 0.19624329l0.035949707 0l0.017974854 -0.16820908c-0.05392456 0 -0.071899414 -0.02803421 -0.071899414 -0.16846848l0 -0.7852287l-0.12579346 0l0 0.6730919c0 0.02803421 -0.017974854 0.05606842 -0.017974854 0.08410263c-0.017974854 0.112400055 -0.090026855 0.19650269 -0.16192627 0.19650269c-0.12579346 0 -0.16174316 -0.14043427 -0.16174316 -0.30863953l0 -0.6450577z" fill-rule="evenodd"/><path fill="#ed1c24" d="m437.6922 36.52488l0 0.14017105l0.75512695 0l0 -0.14017105z" fill-rule="evenodd"/><path fill="#ed1c24" d="m438.9151 36.216312c0.14376831 0 0.19769287 0.2523117 0.19769287 0.42052078c0 0.2523117 -0.08987427 0.4488144 -0.19769287 0.4488144c-0.12597656 0 -0.21582031 -0.19650269 -0.21582031 -0.4488144c0 -0.19624329 0.0718689 -0.42052078 0.21582031 -0.42052078zm0.017974854 -0.14043045c-0.21582031 0 -0.35958862 0.2245369 -0.35958862 0.58898544c0 0.33667755 0.14376831 0.56095505 0.32363892 0.56095505c0.16174316 0 0.34146118 -0.16820908 0.34146118 -0.58898926c0 -0.16820908 -0.035949707 -0.33641434 -0.12579346 -0.42052078l0.17971802 0l0.017974854 -0.14043045z" fill-rule="evenodd"/><path fill="#000000" fill-opacity="0.0" d="m139.61307 83.66551l219.55905 0" fill-rule="evenodd"/><path stroke="#ffffff" stroke-width="2.0" stroke-linejoin="round" stroke-linecap="butt" d="m139.61307 83.66551l207.55905 0" fill-rule="evenodd"/><path fill="#ffffff" stroke="#ffffff" stroke-width="2.0" stroke-linecap="butt" d="m347.17212 86.96898l9.076202 -3.3034668l-9.076202 -3.3034668z" fill-rule="evenodd"/><path fill="#cfe2f3" d="m359.1719 83.66535l72.45801 -15.71653l72.45801 15.71653l-72.45801 15.716537z" fill-rule="evenodd"/><path stroke="#ffffff" stroke-width="1.0" stroke-linejoin="round" stroke-linecap="butt" d="m359.1719 83.66535l72.45801 -15.71653l72.45801 15.71653l-72.45801 15.716537z" fill-rule="evenodd"/><path fill="#000000" fill-opacity="0.0" d="m360.55643 71.31759l144.91339 0l0 24.69291l-144.91339 0z" fill-rule="evenodd"/><path fill="#000000" d="m393.88953 87.12404l0 -4.203125l-0.71875 0l0 -0.640625l0.71875 0l0 -0.515625q0 -0.484375 0.078125 -0.71875q0.125 -0.3125 0.421875 -0.515625q0.296875 -0.203125 0.84375 -0.203125q0.34375 0 0.765625 0.09375l-0.125 0.703125q-0.265625 -0.046875 -0.484375 -0.046875q-0.375 0 -0.53125 0.171875q-0.15625 0.15625 -0.15625 0.59375l0 0.4375l0.9375 0l0 0.640625l-0.9375 0l0 4.203125l-0.8125 0zm5.70105 -1.5625l0.84375 0.109375q-0.1875 0.75 -0.734375 1.15625q-0.546875 0.40625 -1.390625 0.40625q-1.0625 0 -1.6875 -0.65625q-0.609375 -0.65625 -0.609375 -1.828125q0 -1.21875 0.625 -1.890625q0.625 -0.6875 1.625 -0.6875q0.984375 0 1.59375 0.671875q0.609375 0.65625 0.609375 1.859375q0 0.0625 0 0.21875l-3.609375 0q0.046875 0.796875 0.453125 1.21875q0.40625 0.421875 1.015625 0.421875q0.453125 0 0.765625 -0.234375q0.3125 -0.234375 0.5 -0.765625zm-2.6875 -1.328125l2.703125 0q-0.0625 -0.609375 -0.3125 -0.90625q-0.390625 -0.46875 -1.015625 -0.46875q-0.5625 0 -0.953125 0.375q-0.375 0.375 -0.421875 1.0zm7.719116 2.296875q-0.453125 0.390625 -0.875 0.546875q-0.421875 0.15625 -0.90625 0.15625q-0.796875 0 -1.21875 -0.390625q-0.421875 -0.390625 -0.421875 -1.0q0 -0.34375 0.15625 -0.640625q0.15625 -0.296875 0.421875 -0.46875q0.265625 -0.1875 0.59375 -0.28125q0.234375 -0.0625 0.71875 -0.109375q1.0 -0.125 1.46875 -0.28125q0 -0.171875 0 -0.21875q0 -0.5 -0.234375 -0.703125q-0.3125 -0.28125 -0.921875 -0.28125q-0.578125 0 -0.859375 0.203125q-0.28125 0.203125 -0.40625 0.71875l-0.796875 -0.109375q0.109375 -0.515625 0.359375 -0.828125q0.25 -0.328125 0.71875 -0.5q0.46875 -0.171875 1.09375 -0.171875q0.625 0 1.0 0.15625q0.390625 0.140625 0.578125 0.359375q0.1875 0.21875 0.25 0.5625q0.046875 0.203125 0.046875 0.75l0 1.09375q0 1.140625 0.046875 1.453125q0.0625 0.296875 0.21875 0.578125l-0.859375 0q-0.125 -0.25 -0.171875 -0.59375zm-0.0625 -1.828125q-0.453125 0.171875 -1.34375 0.296875q-0.5 0.078125 -0.71875 0.171875q-0.203125 0.09375 -0.3125 0.265625q-0.109375 0.171875 -0.109375 0.390625q0 0.328125 0.234375 0.546875q0.25 0.21875 0.734375 0.21875q0.46875 0 0.828125 -0.203125q0.375 -0.21875 0.5625 -0.578125q0.125 -0.265625 0.125 -0.8125l0 -0.296875zm3.8909912 1.6875l0.109375 0.71875q-0.34375 0.078125 -0.609375 0.078125q-0.453125 0 -0.703125 -0.140625q-0.234375 -0.140625 -0.34375 -0.359375q-0.09375 -0.234375 -0.09375 -0.984375l0 -2.78125l-0.609375 0l0 -0.640625l0.609375 0l0 -1.1875l0.8125 -0.5l0 1.6875l0.828125 0l0 0.640625l-0.828125 0l0 2.828125q0 0.359375 0.046875 0.46875q0.046875 0.09375 0.140625 0.15625q0.09375 0.046875 0.28125 0.046875q0.140625 0 0.359375 -0.03125zm3.9666443 0.734375l0 -0.703125q-0.5625 0.8125 -1.53125 0.8125q-0.421875 0 -0.796875 -0.15625q-0.375 -0.171875 -0.5625 -0.421875q-0.171875 -0.25 -0.25 -0.609375q-0.046875 -0.234375 -0.046875 -0.765625l0 -3.0l0.828125 0l0 2.6875q0 0.640625 0.046875 0.875q0.078125 0.3125 0.328125 0.5q0.25 0.1875 0.609375 0.1875q0.375 0 0.703125 -0.1875q0.328125 -0.1875 0.453125 -0.515625q0.140625 -0.328125 0.140625 -0.953125l0 -2.59375l0.8125 0l0 4.84375l-0.734375 0zm2.0159912 0l0 -4.84375l0.734375 0l0 0.734375q0.28125 -0.515625 0.515625 -0.671875q0.25 -0.171875 0.53125 -0.171875q0.421875 0 0.84375 0.265625l-0.28125 0.765625q-0.296875 -0.171875 -0.609375 -0.171875q-0.265625 0 -0.484375 0.15625q-0.203125 0.15625 -0.296875 0.453125q-0.140625 0.4375 -0.140625 0.953125l0 2.53125l-0.8125 0zm6.4188538 -1.5625l0.84375 0.109375q-0.1875 0.75 -0.734375 1.15625q-0.546875 0.40625 -1.390625 0.40625q-1.0625 0 -1.6875 -0.65625q-0.609375 -0.65625 -0.609375 -1.828125q0 -1.21875 0.625 -1.890625q0.625 -0.6875 1.625 -0.6875q0.984375 0 1.59375 0.671875q0.609375 0.65625 0.609375 1.859375q0 0.0625 0 0.21875l-3.609375 0q0.046875 0.796875 0.453125 1.21875q0.40625 0.421875 1.015625 0.421875q0.453125 0 0.765625 -0.234375q0.3125 -0.234375 0.5 -0.765625zm-2.6875 -1.328125l2.703125 0q-0.0625 -0.609375 -0.3125 -0.90625q-0.390625 -0.46875 -1.015625 -0.46875q-0.5625 0 -0.953125 0.375q-0.375 0.375 -0.421875 1.0zm3.9378662 2.890625l2.5625 -6.671875l0.953125 0l2.734375 6.671875l-1.0 0l-0.78125 -2.015625l-2.796875 0l-0.734375 2.015625l-0.9375 0zm1.921875 -2.734375l2.265625 0l-0.6875 -1.859375q-0.328125 -0.84375 -0.484375 -1.375q-0.125 0.640625 -0.359375 1.265625l-0.734375 1.96875zm7.422821 -0.1875l0 -0.765625l4.421875 -1.859375l0 0.8125l-3.515625 1.4375l3.515625 1.453125l0 0.8125l-4.421875 -1.890625zm9.853729 -1.0l-4.40625 0l0 -0.765625l4.40625 0l0 0.765625zm0 2.015625l-4.40625 0l0 -0.765625l4.40625 0l0 0.765625zm3.5078735 -1.390625q0 -1.1875 0.234375 -1.90625q0.25 -0.71875 0.71875 -1.109375q0.484375 -0.390625 1.21875 -0.390625q0.546875 0 0.9375 0.21875q0.40625 0.21875 0.671875 0.625q0.265625 0.40625 0.40625 1.0q0.15625 0.578125 0.15625 1.5625q0 1.171875 -0.234375 1.90625q-0.234375 0.71875 -0.71875 1.109375q-0.484375 0.390625 -1.21875 0.390625q-0.96875 0 -1.515625 -0.6875q-0.65625 -0.828125 -0.65625 -2.71875zm0.84375 0q0 1.640625 0.375 2.1875q0.390625 0.546875 0.953125 0.546875q0.5625 0 0.953125 -0.546875q0.390625 -0.546875 0.390625 -2.1875q0 -1.640625 -0.390625 -2.1875q-0.390625 -0.546875 -0.953125 -0.546875q-0.578125 0 -0.90625 0.484375q-0.421875 0.609375 -0.421875 2.25zm4.797241 3.296875l0 -0.9375l0.9375 0l0 0.9375l-0.9375 0zm3.4041748 -3.625q-0.515625 -0.1875 -0.765625 -0.53125q-0.25 -0.34375 -0.25 -0.828125q0 -0.734375 0.515625 -1.21875q0.53125 -0.5 1.40625 -0.5q0.875 0 1.40625 0.515625q0.53125 0.5 0.53125 1.234375q0 0.453125 -0.25 0.796875q-0.234375 0.34375 -0.734375 0.53125q0.625 0.203125 0.9375 0.65625q0.328125 0.4375 0.328125 1.0625q0 0.859375 -0.609375 1.4375q-0.609375 0.578125 -1.59375 0.578125q-0.984375 0 -1.59375 -0.578125q-0.609375 -0.59375 -0.609375 -1.46875q0 -0.640625 0.328125 -1.078125q0.328125 -0.453125 0.953125 -0.609375zm-0.171875 -1.390625q0 0.484375 0.296875 0.78125q0.3125 0.296875 0.796875 0.296875q0.484375 0 0.78125 -0.296875q0.296875 -0.296875 0.296875 -0.734375q0 -0.453125 -0.3125 -0.75q-0.3125 -0.3125 -0.765625 -0.3125q-0.46875 0 -0.78125 0.3125q-0.3125 0.296875 -0.3125 0.703125zm-0.265625 3.09375q0 0.34375 0.15625 0.671875q0.171875 0.328125 0.5 0.515625q0.328125 0.171875 0.71875 0.171875q0.578125 0 0.953125 -0.375q0.390625 -0.375 0.390625 -0.96875q0 -0.578125 -0.390625 -0.96875q-0.390625 -0.390625 -0.984375 -0.390625q-0.578125 0 -0.96875 0.390625q-0.375 0.375 -0.375 0.953125zm8.672241 1.140625l0 0.78125l-4.421875 0q-0.015625 -0.296875 0.09375 -0.5625q0.171875 -0.453125 0.53125 -0.890625q0.375 -0.4375 1.078125 -1.015625q1.09375 -0.890625 1.46875 -1.40625q0.390625 -0.53125 0.390625 -1.0q0 -0.484375 -0.359375 -0.8125q-0.34375 -0.34375 -0.890625 -0.34375q-0.59375 0 -0.953125 0.359375q-0.359375 0.359375 -0.359375 0.984375l-0.84375 -0.078125q0.09375 -0.953125 0.65625 -1.4375q0.5625 -0.5 1.515625 -0.5q0.953125 0 1.515625 0.53125q0.5625 0.53125 0.5625 1.328125q0 0.390625 -0.171875 0.78125q-0.15625 0.390625 -0.546875 0.828125q-0.375 0.421875 -1.25 1.15625q-0.734375 0.625 -0.953125 0.84375q-0.203125 0.21875 -0.34375 0.453125l3.28125 0zm5.187866 0l0 0.78125l-4.421875 0q-0.015625 -0.296875 0.09375 -0.5625q0.171875 -0.453125 0.53125 -0.890625q0.375 -0.4375 1.078125 -1.015625q1.09375 -0.890625 1.46875 -1.40625q0.390625 -0.53125 0.390625 -1.0q0 -0.484375 -0.359375 -0.8125q-0.34375 -0.34375 -0.890625 -0.34375q-0.59375 0 -0.953125 0.359375q-0.359375 0.359375 -0.359375 0.984375l-0.84375 -0.078125q0.09375 -0.953125 0.65625 -1.4375q0.5625 -0.5 1.515625 -0.5q0.953125 0 1.515625 0.53125q0.5625 0.53125 0.5625 1.328125q0 0.390625 -0.171875 0.78125q-0.15625 0.390625 -0.546875 0.828125q-0.375 0.421875 -1.25 1.15625q-0.734375 0.625 -0.953125 0.84375q-0.203125 0.21875 -0.34375 0.453125l3.28125 0zm2.6409912 -0.859375q-0.015625 -0.171875 -0.015625 -0.25q0 -0.484375 0.140625 -0.828125q0.09375 -0.265625 0.328125 -0.53125q0.15625 -0.203125 0.578125 -0.578125q0.4375 -0.375 0.5625 -0.59375q0.125 -0.234375 0.125 -0.5q0 -0.46875 -0.375 -0.828125q-0.375 -0.359375 -0.90625 -0.359375q-0.53125 0 -0.890625 0.328125q-0.34375 0.3125 -0.453125 1.015625l-0.84375 -0.09375q0.125 -0.9375 0.6875 -1.4375q0.5625 -0.5 1.484375 -0.5q0.96875 0 1.546875 0.546875q0.59375 0.53125 0.59375 1.28125q0 0.4375 -0.203125 0.8125q-0.203125 0.359375 -0.796875 0.890625q-0.40625 0.359375 -0.53125 0.53125q-0.125 0.15625 -0.1875 0.375q-0.046875 0.21875 -0.0625 0.71875l-0.78125 0zm-0.0625 1.640625l0 -0.9375l0.9375 0l0 0.9375l-0.9375 0z" fill-rule="nonzero"/><path fill="#000000" fill-opacity="0.0" d="m443.02625 67.94882l0 -27.244099" fill-rule="evenodd"/><path stroke="#ffffff" stroke-width="1.0" stroke-linejoin="round" stroke-linecap="butt" d="m443.02625 67.94882l0 -21.244099" fill-rule="evenodd"/><path fill="#ffffff" stroke="#ffffff" stroke-width="1.0" stroke-linecap="butt" d="m444.67798 46.704723l-1.6517334 -4.5380974l-1.6517334 4.5380974z" fill-rule="evenodd"/><path fill="#ed1c24" d="m435.85547 161.08655l0.4128723 1.5984955l0.39111328 -1.5984955z" fill-rule="evenodd"/><path fill="#ed1c24" d="m449.43936 161.08655l0.39093018 1.5984955l0.4128418 -1.5984955z" fill-rule="evenodd"/><path fill="#39b54a" d="m442.63654 161.08655l0.4128723 1.5984955l0.4126587 -1.5984955z" fill-rule="evenodd"/><path fill="#000000" fill-opacity="0.0" d="m415.882 160.30101l54.292236 0" fill-rule="evenodd"/><path stroke="#000000" stroke-width="2.5511811023622046" stroke-linejoin="round" stroke-linecap="round" d="m415.882 160.30101l54.292236 0" fill-rule="evenodd"/><path fill="#000000" fill-opacity="0.0" d="m436.2685 143.66449l0 17.723358" fill-rule="evenodd"/><path stroke="#ed1c24" stroke-width="2.5511811023622046" stroke-miterlimit="108.034" stroke-linecap="round" d="m436.2685 143.66449l0 17.723358" fill-rule="evenodd"/><path fill="#000000" fill-opacity="0.0" d="m449.83044 143.63644l0 17.751389" fill-rule="evenodd"/><path stroke="#ed1c24" stroke-width="2.5511811023622046" stroke-linejoin="round" stroke-linecap="round" d="m449.83044 143.63644l0 17.751389" fill-rule="evenodd"/><path fill="#000000" fill-opacity="0.0" d="m443.04956 132.83534l0 28.548096" fill-rule="evenodd"/><path stroke="#39b54a" stroke-width="2.5511811023622046" stroke-linejoin="round" stroke-linecap="round" d="m443.04956 132.83534l0 28.548096" fill-rule="evenodd"/><path fill="#000000" fill-opacity="0.0" d="m415.882 160.2898c1.2383728 -0.028030396 2.4550476 -0.028030396 3.6934204 -0.05606079c1.1731873 -0.05607605 2.346405 -0.11213684 3.4977112 -0.30863953c1.2383728 -0.19624329 2.455017 -0.53266907 3.6065063 -1.1496887c1.1515198 -0.58898926 2.1724854 -1.514389 3.1285095 -2.579956c0.91238403 -1.0375519 1.7164001 -2.3276672 2.4115906 -3.617508c0.73864746 -1.3461914 1.4121094 -2.7204132 2.0204468 -4.1504364c0.6517639 -1.4863586 1.2601013 -2.972702 1.8901367 -4.4590607c0.5866089 -1.4863586 1.1949158 -2.9444122 1.8249817 -4.4027405c0.6083069 -1.4022522 1.2600708 -2.8045044 2.0204468 -4.0663147c0.4128418 -0.6730957 0.847229 -1.262085 1.3469543 -1.7947388c0.47802734 -0.5048828 1.0429077 -0.78523254 1.6512146 -0.8413086c0.6300659 -0.08409119 1.1947327 0.33642578 1.6944885 0.75720215c0.52145386 0.44854736 0.93429565 1.0936127 1.3252258 1.7106323c0.8040161 1.2618256 1.45578 2.7201385 2.0858154 4.150421c0.6300354 1.3739624 1.1947327 2.804245 1.759613 4.206497c0.6083374 1.514389 1.2166443 3.0004883 1.8684082 4.4588013c0.6300659 1.4302979 1.2818298 2.83255 1.9987488 4.1504364c0.73883057 1.3742065 1.542633 2.6640625 2.4767456 3.785965c0.93429565 1.1216583 1.9769897 1.990982 3.106781 2.6360474c1.0863342 0.64505005 2.3029785 0.9814606 3.4761963 1.1777039c1.1947327 0.19650269 2.411377 0.28060913 3.6280212 0.30863953c1.1949463 0.05607605 2.4115906 0.05607605 3.6065369 0.084106445c0.06515503 0 0.13031006 0 0.17373657 0" fill-rule="evenodd"/><path stroke="#0071bc" stroke-width="2.5511811023622046" stroke-linejoin="round" stroke-linecap="round" d="m415.882 160.2898c1.2383728 -0.028030396 2.4550476 -0.028030396 3.6934204 -0.05606079c1.1731873 -0.05607605 2.346405 -0.11213684 3.4977112 -0.30863953c1.2383728 -0.19624329 2.455017 -0.53266907 3.6065063 -1.1496887c1.1515198 -0.58898926 2.1724854 -1.514389 3.1285095 -2.579956c0.91238403 -1.0375519 1.7164001 -2.3276672 2.4115906 -3.617508c0.73864746 -1.3461914 1.4121094 -2.7204132 2.0204468 -4.1504364c0.6517639 -1.4863586 1.2601013 -2.972702 1.8901367 -4.4590607c0.5866089 -1.4863586 1.1949158 -2.9444122 1.8249817 -4.4027405c0.6083069 -1.4022522 1.2600708 -2.8045044 2.0204468 -4.0663147c0.4128418 -0.6730957 0.847229 -1.262085 1.3469543 -1.7947388c0.47802734 -0.5048828 1.0429077 -0.78523254 1.6512146 -0.8413086c0.6300659 -0.08409119 1.1947327 0.33642578 1.6944885 0.75720215c0.52145386 0.44854736 0.93429565 1.0936127 1.3252258 1.7106323c0.8040161 1.2618256 1.45578 2.7201385 2.0858154 4.150421c0.6300354 1.3739624 1.1947327 2.804245 1.759613 4.206497c0.6083374 1.514389 1.2166443 3.0004883 1.8684082 4.4588013c0.6300659 1.4302979 1.2818298 2.83255 1.9987488 4.1504364c0.73883057 1.3742065 1.542633 2.6640625 2.4767456 3.785965c0.93429565 1.1216583 1.9769897 1.990982 3.106781 2.6360474c1.0863342 0.64505005 2.3029785 0.9814606 3.4761963 1.1777039c1.1947327 0.19650269 2.411377 0.28060913 3.6280212 0.30863953c1.1949463 0.05607605 2.4115906 0.05607605 3.6065369 0.084106445c0.06515503 0 0.13031006 0 0.17373657 0" fill-rule="evenodd"/><path fill="#39b54a" d="m442.63654 163.35881l0 1.1499329c0 0.19624329 0.021728516 0.33641052 0.04345703 0.42051697l0.13031006 0c-0.021728516 -0.11213684 -0.021728516 -0.30838013 -0.021728516 -0.42051697l0 -0.14016724c0.04345703 0.08409119 0.10861206 0.11213684 0.19567871 0.11213684c0.13031006 0 0.2171936 -0.084106445 0.2388916 -0.19624329c0.021728516 0.16819763 0.086883545 0.19624329 0.15203857 0.19624329l0.06515503 0l0.021728516 -0.1401825c-0.06515503 0 -0.086883545 -0.05606079 -0.086883545 -0.16845703l0 -0.81326294l-0.15203857 0l0 0.67308044c0 0.05607605 -0.021697998 0.084106445 -0.021697998 0.11213684c-0.021728516 0.084365845 -0.10861206 0.19650269 -0.19546509 0.19650269c-0.1522522 0 -0.19567871 -0.14042664 -0.19567871 -0.33666992l0 -0.64505005z" fill-rule="evenodd"/><path fill="#ed1c24" d="m448.39606 163.41516l0 1.1496735c0 0.16821289 0.021697998 0.33641052 0.043426514 0.42051697l0.13031006 0c-0.021728516 -0.11213684 -0.021728516 -0.30838013 -0.021728516 -0.42051697l0 -0.14016724c0.04345703 0.084106445 0.10861206 0.11213684 0.19567871 0.11213684c0.13031006 0 0.19546509 -0.084106445 0.23892212 -0.19624329c0.021697998 0.14016724 0.08685303 0.19624329 0.15200806 0.19624329l0.06515503 0l0 -0.1401825c-0.06515503 0 -0.06515503 -0.05606079 -0.06515503 -0.16819763l0 -0.81326294l-0.15200806 0l0 0.67282104c0 0.05607605 -0.021728516 0.084106445 -0.021728516 0.11213684c-0.021728516 0.084365845 -0.10858154 0.19650269 -0.2171936 0.19650269c-0.13052368 0 -0.1739502 -0.16819763 -0.1739502 -0.33666992l0 -0.64479065z" fill-rule="evenodd"/><path fill="#ed1c24" d="m449.72165 163.30272l0 0.5329132l-0.39093018 0l0 0.14016724l0.39093018 0l0 0.56095886l0.10861206 0l0 -0.56095886l0.4128418 0l0 -0.14016724l-0.4128418 0l0 -0.5329132z" fill-rule="evenodd"/><path fill="#ed1c24" d="m450.78668 163.55531c0.19546509 0 0.26062012 0.22428894 0.26062012 0.42051697c0 0.25257874 -0.10858154 0.42079163 -0.26062012 0.42079163c-0.13031006 0 -0.23910522 -0.16821289 -0.23910522 -0.42079163c0 -0.19622803 0.065338135 -0.42051697 0.23910522 -0.42051697zm0.043426514 -0.16845703c-0.26083374 0 -0.45629883 0.22453308 -0.45629883 0.588974c0 0.36471558 0.19546509 0.56095886 0.4128723 0.56095886c0.19546509 0 0.4126587 -0.16821289 0.4126587 -0.56095886c0 -0.16819763 -0.06515503 -0.33641052 -0.15203857 -0.42051697l0 -0.028030396c0.10858154 0.028030396 0.17373657 0.028030396 0.21737671 0.028030396l0 -0.16845703z" fill-rule="evenodd"/><path fill="#ed1c24" d="m434.8341 163.38686l0 1.1499329c0 0.16821289 0 0.33641052 0.021697998 0.39248657l0.13031006 0c0 -0.084106445 -0.021697998 -0.28034973 -0.021697998 -0.42051697l0 -0.1401825c0.043426514 0.084106445 0.10858154 0.1401825 0.19546509 0.1401825c0.13049316 0 0.21737671 -0.11213684 0.23910522 -0.19624329l0.021728516 0c0 0.14016724 0.06515503 0.19624329 0.15200806 0.19624329l0.04345703 0l0.021697998 -0.16821289c-0.06515503 0 -0.08685303 -0.028030396 -0.08685303 -0.16847229l0 -0.7852173l-0.15203857 0l0 0.67308044c0 0.028045654 -0.021728516 0.05607605 -0.021728516 0.084106445c-0.021728516 0.11239624 -0.108795166 0.19650269 -0.19567871 0.19650269c-0.15200806 0 -0.19546509 -0.14042664 -0.19546509 -0.30863953l0 -0.64505005z" fill-rule="evenodd"/><path fill="#ed1c24" d="m435.74683 163.8078l0 0.14016724l0.91259766 0l0 -0.14016724z" fill-rule="evenodd"/><path fill="#ed1c24" d="m437.22473 163.49924c0.17373657 0 0.2388916 0.25230408 0.2388916 0.42051697c0 0.25231934 -0.10858154 0.44882202 -0.2388916 0.44882202c-0.1522522 0 -0.26083374 -0.19650269 -0.26083374 -0.44882202c0 -0.19624329 0.086883545 -0.42051697 0.26083374 -0.42051697zm0.021697998 -0.14042664c-0.26080322 0 -0.4345703 0.22453308 -0.4345703 0.588974c0 0.33668518 0.17376709 0.56095886 0.3911438 0.56095886c0.19546509 0 0.4126587 -0.16821289 0.4126587 -0.58898926c0 -0.16821289 -0.043426514 -0.33641052 -0.15203857 -0.42051697l0.2171936 0l0.021728516 -0.14042664z" fill-rule="evenodd"/><path fill="#000000" fill-opacity="0.0" d="m443.02625 99.38189l0 31.275597" fill-rule="evenodd"/><path stroke="#ffffff" stroke-width="1.0" stroke-linejoin="round" stroke-linecap="butt" d="m443.02625 99.38189l0 25.275589" fill-rule="evenodd"/><path fill="#ffffff" stroke="#ffffff" stroke-width="1.0" stroke-linecap="butt" d="m441.3745 124.65748l1.6517334 4.5380936l1.6517334 -4.5380936z" fill-rule="evenodd"/><path fill="#000000" fill-opacity="0.0" d="m439.07217 52.328083l33.039368 0l0 15.622051l-33.039368 0z" fill-rule="evenodd"/><path fill="#ffffff" d="m450.30655 62.819107l0 -2.421875l-2.203125 -3.3125l0.921875 0l1.125 1.734375q0.3125 0.484375 0.578125 0.96875q0.265625 -0.453125 0.625 -1.015625l1.109375 -1.6875l0.890625 0l-2.296875 3.3125l0 2.421875l-0.75 0zm6.4765625 -1.34375l0.71875 0.09375q-0.171875 0.640625 -0.640625 1.0q-0.453125 0.34375 -1.1875 0.34375q-0.90625 0 -1.4375 -0.5625q-0.53125 -0.5625 -0.53125 -1.578125q0 -1.046875 0.53125 -1.625q0.546875 -0.578125 1.40625 -0.578125q0.828125 0 1.359375 0.578125q0.53125 0.5625 0.53125 1.59375q0 0.0625 -0.015625 0.1875l-3.09375 0q0.046875 0.671875 0.390625 1.046875q0.34375 0.359375 0.875 0.359375q0.375 0 0.640625 -0.203125q0.28125 -0.203125 0.453125 -0.65625zm-2.3125 -1.125l2.3125 0q-0.046875 -0.53125 -0.265625 -0.796875q-0.328125 -0.40625 -0.875 -0.40625q-0.484375 0 -0.8125 0.328125q-0.328125 0.328125 -0.359375 0.875zm3.6367188 1.234375l0.6875 -0.109375q0.0625 0.40625 0.328125 0.640625q0.265625 0.21875 0.75 0.21875q0.484375 0 0.71875 -0.1875q0.234375 -0.203125 0.234375 -0.46875q0 -0.25 -0.203125 -0.375q-0.140625 -0.09375 -0.71875 -0.25q-0.78125 -0.1875 -1.078125 -0.328125q-0.296875 -0.140625 -0.453125 -0.390625q-0.15625 -0.265625 -0.15625 -0.5625q0 -0.28125 0.125 -0.515625q0.140625 -0.234375 0.359375 -0.390625q0.15625 -0.125 0.4375 -0.203125q0.28125 -0.09375 0.609375 -0.09375q0.484375 0 0.859375 0.140625q0.375 0.140625 0.546875 0.390625q0.171875 0.234375 0.234375 0.640625l-0.6875 0.09375q-0.046875 -0.328125 -0.265625 -0.5q-0.21875 -0.1875 -0.640625 -0.1875q-0.484375 0 -0.6875 0.171875q-0.203125 0.15625 -0.203125 0.375q0 0.125 0.078125 0.234375q0.09375 0.125 0.28125 0.1875q0.09375 0.046875 0.609375 0.1875q0.75 0.203125 1.046875 0.328125q0.296875 0.125 0.453125 0.375q0.171875 0.234375 0.171875 0.59375q0 0.34375 -0.203125 0.65625q-0.203125 0.3125 -0.59375 0.484375q-0.375 0.171875 -0.875 0.171875q-0.796875 0 -1.234375 -0.328125q-0.421875 -0.34375 -0.53125 -1.0z" fill-rule="nonzero"/><path fill="#000000" fill-opacity="0.0" d="m439.07217 102.51706l33.039368 0l0 15.622047l-33.039368 0z" fill-rule="evenodd"/><path fill="#ffffff" d="m448.68155 113.00809l0 -5.734375l0.78125 0l3.0 4.5l0 -4.5l0.734375 0l0 5.734375l-0.78125 0l-3.0 -4.5l0 4.5l-0.734375 0zm5.4335938 -2.078125q0 -1.15625 0.640625 -1.703125q0.53125 -0.46875 1.3125 -0.46875q0.84375 0 1.390625 0.5625q0.546875 0.5625 0.546875 1.546875q0 0.8125 -0.25 1.265625q-0.234375 0.453125 -0.703125 0.71875q-0.453125 0.25 -0.984375 0.25q-0.875 0 -1.421875 -0.5625q-0.53125 -0.5625 -0.53125 -1.609375zm0.71875 0q0 0.796875 0.34375 1.203125q0.359375 0.390625 0.890625 0.390625q0.515625 0 0.859375 -0.390625q0.359375 -0.40625 0.359375 -1.21875q0 -0.78125 -0.359375 -1.171875q-0.34375 -0.390625 -0.859375 -0.390625q-0.53125 0 -0.890625 0.390625q-0.34375 0.390625 -0.34375 1.1875z" fill-rule="nonzero"/></g></svg>